<?xml version="1.0" standalone="no"?>
<!DOCTYPE svg PUBLIC "-//W3C//DTD SVG 20010904//EN"
 "http://www.w3.org/TR/2001/REC-SVG-20010904/DTD/svg10.dtd">
<svg version="1.0" xmlns="http://www.w3.org/2000/svg"
 width="315.000000pt" height="315.000000pt" viewBox="0 0 315.000000 315.000000"
 preserveAspectRatio="xMidYMid meet">
<metadata>
Created by potrace 1.11, written by Peter Selinger 2001-2013
</metadata>
<g transform="translate(0.000000,315.000000) scale(0.100000,-0.100000)"
fill="#000000" stroke="none">
<path d="M1330 2581 c-155 -51 -227 -181 -186 -339 8 -34 26 -79 40 -100 52
-83 186 -173 279 -188 47 -8 53 -18 31 -52 -10 -15 -24 -36 -30 -47 -36 -65
-280 -465 -315 -517 -156 -231 -292 -367 -422 -422 -22 -9 -84 -17 -149 -21
-215 -11 -328 -30 -369 -64 l-22 -18 21 -21 c38 -38 117 -28 342 43 99 31 124
36 177 31 191 -18 308 -135 315 -313 1 -31 -5 -51 -24 -75 -34 -45 -39 -64
-23 -78 38 -31 113 28 165 129 38 75 215 254 580 587 35 32 91 85 124 116 34
31 62 55 63 54 2 -1 -13 -32 -32 -67 -79 -150 -85 -307 -13 -370 52 -45 98
-58 188 -55 137 7 266 62 440 190 88 65 252 222 315 301 22 28 43 52 46 55 3
3 20 26 37 52 23 33 29 49 20 54 -6 4 -14 2 -16 -5 -20 -61 -288 -341 -412
-432 -147 -106 -279 -170 -363 -174 -105 -6 -147 35 -153 152 -12 249 287 649
501 670 46 5 84 -22 86 -60 3 -46 -3 -102 -12 -119 -9 -17 -7 -18 18 -13 85
19 133 57 133 105 0 75 -52 111 -166 116 -160 6 -303 -69 -514 -271 -115 -110
-200 -188 -335 -306 -27 -24 -76 -69 -110 -100 -33 -31 -73 -68 -90 -83 -16
-15 -94 -90 -172 -168 -139 -138 -142 -140 -148 -112 -11 53 -60 136 -102 174
-58 51 -135 74 -250 74 -51 1 -93 2 -93 2 0 1 33 17 73 36 178 85 357 247 533
483 66 89 109 153 238 361 l87 141 167 6 c219 7 323 32 497 119 234 117 369
319 301 451 -35 69 -93 96 -201 97 -259 0 -577 -208 -829 -543 l-58 -77 -42 6
c-114 17 -251 117 -301 219 -65 132 -23 279 95 340 48 25 137 30 199 11 66
-19 71 -20 71 -3 0 29 -173 57 -230 38z m1160 -39 c52 -28 72 -73 65 -150 -9
-110 -50 -176 -158 -258 -88 -66 -253 -138 -366 -159 -14 -3 -37 -8 -51 -11
-14 -3 -87 -8 -164 -11 l-138 -6 12 24 c20 38 119 179 173 244 97 119 240 240
354 299 88 45 215 58 273 28z"/>
<path d="M420 475 l0 -45 245 0 245 0 0 45 0 45 -245 0 -245 0 0 -45z"/>
<path d="M1250 475 l0 -45 690 0 690 0 0 45 0 45 -690 0 -690 0 0 -45z"/>
<path d="M420 295 l0 -45 1105 0 1105 0 0 45 0 45 -1105 0 -1105 0 0 -45z"/>
</g>
</svg>
